<svg width="320" height="200" viewBox="0 0 320 200" xmlns="http://www.w3.org/2000/svg">
  <rect width="320" height="200" rx="32" fill="#fff"/>
  <circle cx="120" cy="100" r="60" fill="#ffd500"/>
  <circle cx="120" cy="100" r="44" fill="#fff"/>
  <path d="M120 72c13 0 24 8 24 18s-11 18-24 18-24-8-24-18 11-18 24-18z" fill="#ffd500"/>
  <path d="M210 60c-24 0-40 12-40 30 0 17 14 27 32 30-15 3-27 14-27 30 0 19 17 34 41 34s41-15 41-34c0-16-12-27-27-30 18-3 30-13 30-30 0-19-17-30-50-30z" fill="#8f8df2"/>
</svg>
