<svg width="360" height="180" viewBox="0 0 360 180" xmlns="http://www.w3.org/2000/svg">
  <rect width="360" height="180" rx="40" fill="#8f8df2"/>
  <path d="M58 125c-13 0-23-9-23-24 0-27 20-52 49-52 21 0 38 15 38 36 0 25-22 40-43 40h-21zm28-63c-8 0-15 8-15 18 0 10 6 16 14 16 9 0 16-7 16-17 0-11-7-17-15-17zm78 63c-22 0-38-13-38-35 0-27 21-52 51-52 19 0 32 11 32 26 0 7-3 11-7 15 8 3 15 10 15 22 0 16-15 24-30 24h-23zm9-62c-9 0-16 7-16 18 0 10 6 16 14 16 9 0 16-7 16-17 0-11-7-17-14-17zm73 62c-22 0-38-13-38-35 0-27 21-52 51-52 17 0 32 9 32 23 0 9-5 16-13 18 9 3 16 10 16 22 0 16-16 24-32 24h-16zm7-62c-9 0-16 7-16 18 0 10 6 16 14 16 9 0 16-7 16-17 0-11-7-17-14-17zm81 62c-14 0-24-9-24-24 0-27 21-52 51-52 18 0 33 11 33 27 0 16-11 23-21 23-4 0-7-1-10-2 1 12 9 18 20 18 5 0 11-2 16-5v20c-7 4-16 7-27 7h-38z" fill="#fff"/>
</svg>
