<svg width="320" height="220" viewBox="0 0 320 220" xmlns="http://www.w3.org/2000/svg">
  <rect width="320" height="220" rx="40" fill="#00b4d8"/>
  <circle cx="110" cy="110" r="60" fill="#f6f8ff"/>
  <circle cx="110" cy="110" r="42" fill="#ffd500"/>
  <path d="M216 60c-22 0-38 11-38 28 0 15 12 25 29 28-15 4-26 15-26 30 0 19 17 34 40 34 23 0 39-15 39-34 0-15-11-26-27-29 16-3 27-13 27-28 0-18-16-29-44-29z" fill="#f6f8ff"/>
  <path d="M214 74c9 0 15 4 15 11 0 6-5 11-15 11-9 0-15-5-15-11 0-7 6-11 15-11zm6 47c11 0 18 6 18 14s-8 14-19 14c-10 0-18-6-18-14 0-8 8-14 19-14z" fill="#0122a5"/>
</svg>
